<svg xmlns="http://www.w3.org/2000/svg" xmlns:xlink="http://www.w3.org/1999/xlink" version="1.1" x="0px" y="0px" viewBox="0 0 100 125" enable-background="new 0 0 100 100" xml:space="preserve"><g><path fill="#000000" d="M42.49,20.602c-3.536,0-6.413,3.001-6.413,6.688s2.877,6.689,6.413,6.689s6.414-3.001,6.414-6.689   S46.026,20.602,42.49,20.602z M42.49,32.26c-2.589,0-4.695-2.229-4.695-4.97s2.106-4.971,4.695-4.971   c2.589,0,4.696,2.229,4.696,4.971S45.079,32.26,42.49,32.26z"/><path fill="#000000" d="M67.662,51.862c0.112,0.002,0.229,0.008,0.339,0.008c1.617,0,3.166-0.063,4.626-0.183   c7.465-0.623,11.813-2.752,12.575-6.156c0.052-0.229,0.085-0.459,0.102-0.688l0.068-0.391c0.043-0.248,0.084-0.5,0.134-0.751   c0.002-0.022,0.007-0.043,0.01-0.065c1.165-8.817-0.997-17.711-6.087-25.044c-5.121-7.379-12.771-12.525-21.541-14.49   c-2.584-0.579-5.226-0.874-7.85-0.874c-15.88,0-30.007,10.674-34.352,25.958c-0.026,0.09-0.035,0.18-0.038,0.271   c-0.048,0.145-0.092,0.292-0.125,0.443c-1.7,7.596,15.332,15.722,32.22,19.511c1.621,0.363,3.23,0.683,4.825,0.966   c-0.886-0.021-1.772-0.033-2.656-0.033c-17.325,0-35.737,4.203-35.737,11.986c0,0.239,0.021,0.476,0.057,0.709   c0,0.014-0.001,0.022-0.001,0.034C15.3,81.979,30.979,96.783,49.925,96.783c8.988,0,17.579-3.349,24.19-9.429   c6.57-6.043,10.622-14.248,11.415-23.107c0.003-0.022,0.004-0.045,0.004-0.066c0.009-0.252,0.021-0.505,0.034-0.756l0.017-0.31   c0.041-0.257,0.063-0.518,0.063-0.784C85.648,57.271,77.867,53.727,67.662,51.862z M50.038,5.519c2.457,0,4.929,0.275,7.349,0.817   C73.35,9.914,84.115,24.12,83.517,40.12c-4.612-5.729-17.387-11.101-30.157-14.014c-0.59-5.502-5.239-9.802-10.87-9.802   c-2.893,0-5.524,1.136-7.482,2.985c-0.347,0.314-0.67,0.653-0.962,1.021c-0.531,0.525-0.953,1.221-1.251,1.909   c-0.224,0.432-0.423,0.88-0.59,1.343c-5.632-0.034-9.959,0.691-12.822,2.081C24.625,13.604,36.667,5.519,50.038,5.519z    M51.225,27.471c0,4.876-3.952,8.829-8.828,8.829c-4.877,0-8.83-3.952-8.83-8.829c0-4.877,3.953-8.83,8.83-8.83   C47.273,18.642,51.225,22.594,51.225,27.471z M48.244,47.178C29.03,42.866,16.756,34.876,17.758,30.4   c0.593-2.645,5.999-4.39,13.893-4.533c-0.06,0.466-0.095,0.94-0.095,1.422c0,6.058,4.905,10.986,10.934,10.986   c5.634,0,10.287-4.305,10.871-9.813C66.8,31.593,76.802,36.546,80.937,40.72c0.011,0.012,0.022,0.023,0.032,0.034   c0.158,0.16,0.306,0.318,0.445,0.475c0.043,0.047,0.081,0.094,0.121,0.142c0.104,0.121,0.205,0.242,0.299,0.361   c0.068,0.086,0.128,0.171,0.188,0.257c0.06,0.081,0.121,0.161,0.173,0.24c0.085,0.128,0.162,0.253,0.233,0.378   c0.022,0.037,0.047,0.075,0.067,0.112c0.459,0.837,0.627,1.617,0.471,2.312c-0.498,2.231-4.435,3.865-10.529,4.375   C65.733,49.964,57.142,49.174,48.244,47.178z M49.925,94.494c-16.269,0-29.962-11.664-32.886-27.249   c1.893,1.492,4.502,2.651,7.128,3.535c0.135,0.047,0.27,0.091,0.407,0.138c0.081,0.025,0.161,0.052,0.242,0.076   c0.213,0.069,0.427,0.136,0.646,0.202c0.027,0.01,0.054,0.018,0.082,0.027c0.763,0.229,1.56,0.45,2.392,0.662   c0.004,0,0.009,0,0.013,0.002c0.251,0.063,0.504,0.126,0.763,0.188c0.039,0.01,0.078,0.017,0.117,0.027   c0.212,0.051,0.423,0.101,0.64,0.15c0,0.007,0.001,0.014,0.001,0.021c-0.075,3.564,3.821,6.898,9.247,7.762   c0.66,0.105,1.333,0.16,1.999,0.16c4.619,0,8.668-2.565,9.355-5.879c0.381,0,0.764-0.002,1.145-0.007   c0.043,0,0.085-0.003,0.127-0.003c12.779-0.17,25.854-2.602,31.465-7.055C79.891,82.99,66.278,94.494,49.925,94.494z M83.32,62.733   c-0.001,0.002-0.002,0.007-0.003,0.009c-0.72,4.063-11.964,8.386-28.198,9.163c-0.061,0.002-0.123,0.005-0.185,0.007   c-0.494,0.022-0.993,0.045-1.498,0.06c-0.222,0.007-0.446,0.011-0.67,0.018c-0.354,0.007-0.707,0.019-1.066,0.024   c-0.59,0.01-1.186,0.015-1.788,0.015c-0.196,0-0.39-0.003-0.584-0.005l-0.302-0.002c-0.003,0-0.006,0-0.009,0   c-0.001,0-0.003,0-0.006,0l-1.208-0.01l0.071,1.221c0.01,0.172,0.002,0.335-0.024,0.499c-0.301,1.889-2.907,3.904-6.42,4.148   c-0.234,0.018-0.473,0.024-0.714,0.024c-0.545,0-1.096-0.041-1.638-0.128c-4.341-0.692-7.678-3.348-7.288-5.8   c0.014-0.087,0.037-0.185,0.069-0.296l0.348-1.188l-1.212-0.253c-0.271-0.057-0.538-0.114-0.804-0.173   c-0.055-0.012-0.109-0.024-0.165-0.037c-0.211-0.049-0.421-0.096-0.629-0.145c-0.044-0.01-0.087-0.022-0.132-0.032   c-0.221-0.055-0.441-0.106-0.656-0.161c-0.02-0.005-0.04-0.009-0.059-0.014c-5.612-1.418-9.647-3.36-11.281-5.381   c-0.011-0.016-0.022-0.03-0.033-0.043c-0.056-0.07-0.108-0.141-0.158-0.211c-0.023-0.032-0.045-0.066-0.067-0.099   c-0.035-0.052-0.067-0.104-0.098-0.155c-0.029-0.047-0.056-0.094-0.082-0.143c-0.021-0.037-0.04-0.074-0.059-0.111   c-0.028-0.059-0.056-0.115-0.08-0.175c-0.013-0.027-0.024-0.057-0.035-0.084c-0.025-0.063-0.048-0.127-0.068-0.191   c-0.008-0.024-0.015-0.049-0.021-0.074c-0.02-0.063-0.036-0.13-0.049-0.194c-0.033-0.162-0.053-0.322-0.053-0.485   c0-4.585,13.736-9.693,33.447-9.693c19.71,0,33.447,5.108,33.447,9.693C83.359,62.465,83.345,62.598,83.32,62.733z"/></g><text x="0" y="115" fill="#000000" font-size="5px" font-weight="bold" font-family="'Helvetica Neue', Helvetica, Arial-Unicode, Arial, Sans-serif">Created by Rahe</text><text x="0" y="120" fill="#000000" font-size="5px" font-weight="bold" font-family="'Helvetica Neue', Helvetica, Arial-Unicode, Arial, Sans-serif">from the Noun Project</text></svg>