<svg xmlns="http://www.w3.org/2000/svg" xmlns:xlink="http://www.w3.org/1999/xlink" version="1.1" x="0px" y="0px" viewBox="0 0 100 125" enable-background="new 0 0 100 100" xml:space="preserve"><g><path fill="#000000" d="M44.541,50.188c-4.829,0-8.757,4.09-8.757,9.115c0,5.029,3.928,9.117,8.757,9.117s8.758-4.088,8.758-9.117   C53.299,54.277,49.37,50.188,44.541,50.188z M44.541,65.426c-3.178,0-5.764-2.746-5.764-6.123c0-3.375,2.586-6.121,5.764-6.121   c3.179,0,5.765,2.746,5.765,6.121C50.306,62.68,47.72,65.426,44.541,65.426z"/><path fill="#000000" d="M49.999,3.217c-25.833,0-46.851,20.987-46.851,46.782c0,25.796,21.018,46.784,46.851,46.784   c25.835,0,46.853-20.988,46.853-46.784C96.852,24.204,75.834,3.217,49.999,3.217z M49.999,6.211   c22.755,0,41.513,17.394,43.647,39.563c-4.084,7.609-16.883,12.781-34.521,13.969c0.006-0.145,0.012-0.291,0.012-0.439   c0-8.084-6.547-14.663-14.596-14.663c-7.993,0-14.502,6.489-14.591,14.499C15.766,56.787,6.343,50.631,6.343,46.138H6.322   C8.289,23.796,27.121,6.211,49.999,6.211z M56.143,59.303c0,6.436-5.205,11.672-11.602,11.672s-11.602-5.236-11.602-11.672   c0-6.433,5.205-11.668,11.602-11.668S56.143,52.87,56.143,59.303z M49.999,93.789c-23.47,0-42.689-18.506-43.803-41.668   c4.33,4.539,13.225,8.42,24.04,10.092c1.347,6.699,7.248,11.756,14.305,11.756c6.861,0,12.627-4.781,14.182-11.199   c16.594-1.029,29.002-5.363,35.115-12.137C93.498,74.486,73.969,93.789,49.999,93.789z"/></g><text x="0" y="115" fill="#000000" font-size="5px" font-weight="bold" font-family="'Helvetica Neue', Helvetica, Arial-Unicode, Arial, Sans-serif">Created by Rahe</text><text x="0" y="120" fill="#000000" font-size="5px" font-weight="bold" font-family="'Helvetica Neue', Helvetica, Arial-Unicode, Arial, Sans-serif">from the Noun Project</text></svg>